# ProBuilder 4.2.3
# https://unity3d.com/unity/features/worldbuilding/probuilder
# 4/14/2020 10:55:42 AM

mtllib ./HouseSecondFloor.mtl
o HouseSecondFloor

g HouseSecondFloor
v -10.625 -3.303711 2.505362
v -10.875 -3.303711 2.505362
v -10.625 3.30371 2.505362
v -10.875 3.30371 2.505362
v -10.875 -3.303711 -9.524912
v -10.875 -3.303711 -9.681404
v -10.875 3.30371 -9.524912
v -10.875 3.303711 -9.681404
v -10.625 -3.303711 -9.681404
v -10.625 3.303711 -9.681404
v 5.625 -3.303711 -9.681404
v 5.625 -3.303711 -9.524912
v 5.625 3.303711 -9.681404
v 5.625 3.30371 -9.524912
v -10.625 3.30371 -9.524912
v -10.625 -3.303711 -9.524912
v 5.375 -3.303711 -9.524912
v 5.375 -3.303711 -9.681404
v 5.375 3.303711 -9.681404
v 5.375 3.30371 -9.524912
v 5.375 3.30371 -0.2749119
v 5.625 3.30371 -0.2749119
v 5.625 -3.303711 -0.2749119
v 5.375 -3.303711 -0.2749119
v 5.375 -3.303711 -0.5249119
v 5.625 -3.303711 -0.5249119
v 5.375 3.30371 -0.5249119
v 5.625 3.30371 -0.5249119
v 10.95898 -3.303711 -0.5249119
v 10.95898 -3.303711 -0.2749119
v 10.95898 3.303711 -0.2749119
v 10.95898 3.303711 -0.5249119
v 10.625 3.30371 -0.2749119
v 10.625 -3.303711 -0.2749119
v 10.625 3.30371 2.505297
v 10.95898 3.303711 2.505297
v 10.95898 -3.303711 2.505297
v 10.625 -3.303711 2.505297
v 10.625 3.30371 -0.5249119
v 10.625 -3.303711 -0.5249119
v 10.625 -3.303711 2.301254
v 10.95898 -3.303711 2.301254
v 10.625 3.30371 2.301254
v -0.9586945 3.30371 2.301254
v -0.9586945 3.30371 2.505297
v -0.9586945 -3.303711 2.505297
v -0.9586945 -3.303711 2.301254
v 10.95898 3.303711 2.301254
v 7.823196 -3.303711 2.301254
v 7.823196 -3.303711 2.505297
v 8.005722 -3.303711 2.505297
v 8.005722 -3.303711 2.301254
v 8.005722 3.30371 2.301254
v 7.823196 3.30371 2.301254
v 8.005722 3.30371 2.505297
v 8.005722 -3.303711 9.986282
v 7.823196 -3.303711 9.986282
v 7.823196 3.303711 9.986282
v 8.005722 3.303711 9.986282
v 7.823196 3.30371 2.505297
v 7.823196 -3.303711 9.612226
v 8.005722 -3.303711 9.612226
v 7.823196 3.30371 9.612226
v 2.021301 3.30371 9.612226
v 2.021301 3.303711 9.986282
v 2.021301 -3.303711 9.986282
v 2.021301 -3.303711 9.612226
v 8.005722 3.30371 9.612226
v 2.141373 -3.303711 9.612226
v 2.141373 -3.303711 9.986282
v 2.141373 3.30371 9.612226
v 2.141373 3.30371 2.30126
v 2.021301 3.30371 2.30126
v 2.021301 -3.303711 2.30126
v 2.141373 -3.303711 2.30126
v 2.141373 3.303711 9.986282
v -10.875 -3.303711 -3.524912
v -10.625 -3.303711 -3.524912
v -10.625 3.30371 -3.524912
v -10.875 3.30371 -3.524912
v -10.875 -3.303711 2.316162
v -10.625 -3.303711 2.30126
v -6.795898 -3.303711 2.505362
v -6.795898 3.30371 2.505362
v -6.795898 3.30371 2.30126
v -6.795898 -3.303711 2.30126
v -10.625 3.30371 2.30126
v -10.875 3.30371 2.316162
v -0.7935028 -3.303711 2.505297
v -0.7935028 -3.303711 2.301254
v -0.7935028 3.30371 2.301254
v -0.7935028 3.30371 -2.196869
v -0.9586945 3.30371 -2.196869
v -0.9586945 -3.303711 -2.196869
v -0.7935028 -3.303711 -2.196869
v -0.7935028 3.30371 2.505297
v -0.7935028 -3.303711 2.92333
v -0.9586945 -3.303711 2.92333
v -0.9586945 3.30371 2.92333
v -0.7935028 3.30371 2.92333
v -0.7935028 3.30371 -2.066313
v -0.7935028 -3.303711 -2.066313
v 2.360733 3.30371 -2.066313
v 2.360733 3.30371 -2.196869
v 2.360733 -3.303711 -2.196869
v 2.360733 -3.303711 -2.066313
v -0.9586945 3.30371 -2.066313
v -0.9586945 -3.303711 -2.066313
v -6.932526 -3.303711 -2.066313
v -6.932526 -3.303711 -2.196869
v -6.932526 3.30371 -2.196869
v -6.932526 3.30371 -2.066313
v -6.796356 -3.303711 -2.196869
v -6.796356 -3.303711 -2.066313
v -6.796356 3.30371 -2.196869
v -6.796356 3.30371 -2.066313
v -6.796356 -3.303711 2.923143
v -6.932526 -3.303711 2.923143
v -6.932526 3.30371 2.923143
v -6.796356 3.30371 2.923143
v -6.932526 -3.303711 2.772552
v -6.796356 -3.303711 2.772552
v -6.932526 3.30371 2.772552
v -6.796356 3.30371 2.772552
v -0.7939453 -3.303711 2.772552
v -0.7939453 3.30371 2.772552
v 2.237534 3.30371 -2.066313
v 2.237534 -3.303711 -2.066313
v 2.237534 3.30371 -0.690567
v 2.360733 3.30371 -0.690567
v 2.360733 -3.303711 -0.690567
v 2.237534 -3.303711 -0.690567
v 2.237534 3.30371 -2.196869
v 2.237534 -3.303711 -2.196869
v 2.237534 -3.303711 -5.392801
v 2.360733 -3.303711 -5.392801
v 2.360733 3.30371 -5.392801
v 2.237534 3.30371 -5.392801
v 2.237534 -3.303711 -0.7958069
v 2.360733 -3.303711 -0.7958069
v 2.237534 3.30371 -0.7958069
v 2.360733 3.30371 -0.7958069
v 5.625 -3.303711 -0.7958069
v 5.625 -3.303711 -0.690567
v 5.625 3.30371 -0.690567
v 5.625 3.30371 -0.7958069
v 2.360733 3.30371 -4.311543
v 2.360733 -3.303711 -4.311543
v 2.237534 3.30371 -4.311543
v 2.237534 -3.303711 -4.311543
v 5.625 -3.303711 -4.311543
v 5.625 3.30371 -4.311543
v 5.625 3.30371 -4.456068
v 5.625 -3.303711 -4.456068
v 2.360733 3.30371 -4.456068
v 2.237534 3.30371 -4.456068
v 2.237534 -3.303711 -4.456068
v 2.360733 -3.303711 -4.456068
v 2.360733 3.30371 -5.281168
v 2.360733 -3.303711 -5.281168
v 2.237534 3.30371 -5.281168
v 2.237534 -3.303711 -5.281168
v -0.9589844 -3.303711 -5.281168
v -0.9589844 -3.303711 -5.392801
v -0.9589844 3.30371 -5.392801
v -0.9589844 3.30371 -5.281168
v -0.7939453 -3.303711 -5.392801
v -0.7939453 -3.303711 -5.281168
v -0.7939453 3.30371 -5.281168
v -0.7939453 3.30371 -5.392801
v -0.7939453 3.303711 -9.66914
v -0.9589844 3.303711 -9.66914
v -0.9589844 -3.303711 -9.66914
v -0.7939453 -3.303711 -9.66914

vt -10.625 -3.303711
vt -10.875 -3.303711
vt -10.625 3.30371
vt -10.875 3.30371
vt -9.524912 -3.303711
vt -9.681404 -3.303711
vt -9.524912 3.30371
vt -9.681404 3.303711
vt 10.875 -3.303711
vt 10.625 -3.303711
vt 10.875 3.303711
vt 10.625 3.303711
vt 9.681404 -3.303711
vt 9.524912 -3.303711
vt 9.681404 3.303711
vt 9.524912 3.30371
vt 10.625 -9.524922
vt 10.875 -9.524922
vt 10.625 -9.681415
vt 10.875 -9.681415
vt -10.625 -9.681404
vt -10.875 -9.681404
vt -10.625 -9.524912
vt -10.875 -9.524912
vt 5.375 -9.524912
vt 5.375 -9.681404
vt 5.625 -9.524912
vt 5.625 -9.681404
vt -5.375 -3.303711
vt -5.375 3.303711
vt -5.625 -3.303711
vt -5.625 3.303711
vt 5.375 3.30371
vt 5.375 -3.303711
vt 5.625 3.30371
vt 5.625 -3.303711
vt -5.375 -9.681415
vt -5.375 -9.524922
vt -5.625 -9.681415
vt -5.625 -9.524922
vt 5.375 -0.5249119
vt 5.625 -0.5249119
vt 5.375 -0.2749119
vt 5.625 -0.2749119
vt -0.5249119 3.30371
vt -0.5249119 -3.303711
vt -0.2749119 3.30371
vt -0.2749119 -3.303711
vt 0.5249119 -3.303711
vt 0.5249119 3.30371
vt 0.2749119 -3.303711
vt 0.2749119 3.303711
vt -5.625 -0.5249119
vt -5.375 -0.5249119
vt -5.625 -0.2749119
vt -5.375 -0.2749119
vt 10.95898 3.303711
vt 10.95898 -3.303711
vt -10.625 -0.5249119
vt -10.625 -0.2749119
vt -10.95899 -0.5249119
vt -10.95899 -0.2749119
vt -10.95898 -3.303711
vt -10.95898 3.303711
vt 10.625 -0.2749119
vt 10.625 -0.5249119
vt 10.95898 -0.2749119
vt 10.95898 -0.5249119
vt 10.625 2.301254
vt 10.95898 2.301254
vt 10.625 2.505297
vt 10.95898 2.505297
vt 2.301254 3.30371
vt 2.301254 -3.303711
vt 2.505297 3.30371
vt 2.505297 -3.303711
vt -2.301254 -3.303711
vt -2.301254 3.303711
vt -2.505297 -3.303711
vt -2.505297 3.303711
vt -10.95899 2.301254
vt -10.625 2.301254
vt -10.95899 2.505297
vt -10.625 2.505297
vt 7.823196 2.301254
vt 7.823196 2.505297
vt 8.005722 2.505297
vt 8.005722 2.301254
vt -8.005722 3.30371
vt -8.005722 -3.303711
vt -7.823196 3.30371
vt -7.823196 -3.303711
vt 8.005722 -3.303711
vt 8.005722 3.30371
vt 7.823196 -3.303711
vt 7.823196 3.303711
vt -7.823196 2.301254
vt -8.005722 2.301254
vt -8.005722 2.505297
vt -7.823196 2.505297
vt 7.823196 9.612226
vt 8.005722 9.612226
vt 7.823196 9.986282
vt 8.005722 9.986282
vt 9.612226 3.30371
vt 9.612226 -3.303711
vt 9.986282 3.303711
vt 9.986282 -3.303711
vt -9.612226 -3.303711
vt -9.612226 3.30371
vt -9.986282 -3.303711
vt -9.986282 3.303711
vt -8.005722 9.612228
vt -7.823196 9.612228
vt -8.005722 9.986284
vt -7.823196 9.986284
vt 2.141373 9.612226
vt 2.141373 9.986282
vt 2.021301 9.612226
vt 2.021301 9.986282
vt -2.141373 3.30371
vt -2.141373 -3.303711
vt -2.021301 3.30371
vt -2.021301 -3.303711
vt 2.141373 -3.303711
vt 2.141373 3.303711
vt 2.021301 -3.303711
vt 2.021301 3.303711
vt -2.141373 9.986286
vt -2.141373 9.61223
vt -2.021301 9.986286
vt -2.021301 9.61223
vt -2.141373 2.30126
vt -2.021301 2.30126
vt 2.021301 2.30126
vt 2.141373 2.30126
vt -10.875 -3.524912
vt -10.625 -3.524912
vt 3.524912 -3.303711
vt 3.524912 3.30371
vt -3.524912 3.30371
vt -3.524912 -3.303711
vt 10.625 -3.524912
vt 10.875 -3.524912
vt -10.875 2.316162
vt -10.875 2.505362
vt 2.316162 -3.303711
vt 2.316162 3.30371
vt 10.875 2.316162
vt 10.875 2.505362
vt -6.795898 -3.303711
vt -6.795898 3.30371
vt 6.795898 2.505362
vt 6.795898 2.30126
vt 6.795898 3.30371
vt 6.795898 -3.303711
vt -6.795898 2.30126
vt -6.795898 2.505362
vt -0.9586945 2.301254
vt -0.9586945 2.505297
vt -0.7935028 2.505297
vt -0.7935028 2.301254
vt 0.7935028 3.30371
vt 0.7935028 -3.303711
vt 0.9586945 3.30371
vt 0.9586945 -3.303711
vt -0.7935028 -3.303711
vt -0.7935028 3.30371
vt -0.9586945 -3.303711
vt -0.9586945 3.30371
vt 0.9586945 2.301254
vt 0.7935028 2.301254
vt 0.7935028 2.505297
vt 0.9586945 2.505297
vt 2.066313 3.30371
vt 2.066313 -3.303711
vt 2.196869 3.30371
vt 2.196869 -3.303711
vt 0.9586945 -2.066313
vt 0.7935028 -2.066313
vt 0.9586945 -2.196869
vt 0.7935028 -2.196869
vt -2.066313 -3.303711
vt -2.066313 3.30371
vt -2.196869 -3.303711
vt -2.196869 3.30371
vt -0.7935028 -2.066313
vt -0.9586945 -2.066313
vt -0.7935028 -2.196869
vt -0.9586945 -2.196869
vt -6.796356 -2.196869
vt -6.796356 -2.066313
vt -6.932526 -2.196869
vt -6.932526 -2.066313
vt 6.796356 3.30371
vt 6.796356 -3.303711
vt 6.932526 3.30371
vt 6.932526 -3.303711
vt -6.796356 -3.303711
vt -6.796356 3.30371
vt -6.932526 -3.303711
vt -6.932526 3.30371
vt 6.796356 -2.066313
vt 6.796356 -2.196869
vt 6.932526 -2.066313
vt 6.932526 -2.196869
vt -6.932526 2.772552
vt -6.796356 2.772552
vt -6.932526 2.923143
vt -6.796356 2.923143
vt 2.772552 3.30371
vt 2.772552 -3.303711
vt 2.923143 3.30371
vt 2.923143 -3.303711
vt -2.772552 -3.303711
vt -2.772552 3.30371
vt -2.923143 -3.303711
vt -2.923143 3.30371
vt 6.796356 2.772552
vt 6.932526 2.772552
vt 6.796356 2.923143
vt 6.932526 2.923143
vt 0.7939453 2.923143
vt 0.7939453 2.772552
vt -0.7939453 2.772552
vt -0.7939453 2.923143
vt -0.9586945 2.92333
vt 0.9586945 2.92333
vt 2.237534 3.30371
vt 2.237534 -3.303711
vt 2.360733 3.30371
vt 2.360733 -3.303711
vt -2.237534 -2.196869
vt -2.237534 -2.066313
vt -2.360733 -2.196869
vt -2.360733 -2.066313
vt -2.237534 -3.303711
vt -2.237534 3.30371
vt -2.360733 -3.303711
vt -2.360733 3.30371
vt 2.237534 -2.066313
vt 2.237534 -2.196869
vt 2.360733 -2.066313
vt 2.360733 -2.196869
vt 2.237534 -0.7958069
vt 2.360733 -0.7958069
vt 2.237534 -0.690567
vt 2.360733 -0.690567
vt -0.7958069 3.30371
vt -0.7958069 -3.303711
vt -0.690567 3.30371
vt -0.690567 -3.303711
vt 0.7958069 -3.303711
vt 0.7958069 3.30371
vt 0.690567 -3.303711
vt 0.690567 3.30371
vt -2.360733 -0.7958069
vt -2.237534 -0.7958069
vt -2.360733 -0.690567
vt -2.237534 -0.690567
vt -5.625 -0.690567
vt -5.625 -0.7958069
vt 5.625 -0.7958069
vt 5.625 -0.690567
vt 4.311543 3.30371
vt 4.311543 -3.303711
vt -2.237534 -4.311543
vt -2.360733 -4.311543
vt -4.311543 -3.303711
vt -4.311543 3.30371
vt 2.360733 -4.311543
vt 2.237534 -4.311543
vt 4.456068 3.30371
vt 4.456068 -3.303711
vt -2.360733 -4.456068
vt -2.237534 -4.456068
vt -4.456068 -3.303711
vt -4.456068 3.30371
vt 2.360733 -4.456068
vt 2.237534 -4.456068
vt -5.625 -4.311543
vt -5.625 -4.456068
vt 5.625 -4.456068
vt 5.625 -4.311543
vt 5.281168 3.30371
vt 5.281168 -3.303711
vt 5.392801 3.30371
vt 5.392801 -3.303711
vt -2.237534 -5.392801
vt -2.360733 -5.392801
vt -2.360733 -5.281168
vt -2.237534 -5.281168
vt -5.281168 -3.303711
vt -5.281168 3.30371
vt -5.392801 -3.303711
vt -5.392801 3.30371
vt 2.237534 -5.392801
vt 2.237534 -5.281168
vt 2.360733 -5.281168
vt 2.360733 -5.392801
vt -0.7939453 -5.392801
vt -0.7939453 -5.281168
vt -0.9589844 -5.392801
vt -0.9589844 -5.281168
vt 0.7939453 -5.281168
vt 0.7939453 -5.392801
vt 0.9589844 -5.281168
vt 0.9589844 -5.392801
vt 9.66914 -3.303711
vt 9.66914 3.303711
vt 0.7939453 -9.66914
vt 0.9589844 -9.66914
vt -9.66914 3.303711
vt -9.66914 -3.303711
vt -0.9589844 -9.66914
vt -0.7939453 -9.66914

vn 0 0 1
vn -1 0 0
vn 0 0 -1
vn 1 0 0
vn 0 1 3.047034E-06
vn 0 -1 0

usemtl ProBuilderDefault
f 3/3/1 4/4/1 2/2/1 1/1/1
f 7/7/2 8/8/2 6/6/2 5/5/2
f 8/11/3 10/12/3 9/10/3 6/9/3
f 13/15/4 14/16/4 12/14/4 11/13/4
f 10/19/5 8/20/5 7/18/5 15/17/5
f 16/23/6 5/24/6 6/22/6 9/21/6
f 18/26/6 17/25/6 16/23/6 9/21/6
f 11/28/6 12/27/6 17/25/6 18/26/6
f 9/10/3 10/12/3 19/30/3 18/29/3
f 18/29/3 19/30/3 13/32/3 11/31/3
f 20/33/1 15/3/1 16/1/1 17/34/1
f 22/35/1 21/33/1 24/34/1 23/36/1
f 15/17/5 20/38/5 19/37/5 10/19/5
f 20/38/5 14/40/5 13/39/5 19/37/5
f 12/27/6 26/42/6 25/41/6 17/25/6
f 26/42/6 23/44/6 24/43/6 25/41/6
f 27/45/2 20/7/2 17/5/2 25/46/2
f 21/47/2 27/45/2 25/46/2 24/48/2
f 12/14/4 14/16/4 28/50/4 26/49/4
f 29/49/4 32/50/4 31/52/4 30/51/4
f 27/54/5 28/53/5 14/40/5 20/38/5
f 21/56/5 22/55/5 28/53/5 27/54/5
f 33/12/1 22/35/1 23/36/1 34/10/1
f 36/57/1 35/12/1 38/10/1 37/58/1
f 22/55/5 33/60/5 39/59/5 28/53/5
f 33/60/5 31/62/5 32/61/5 39/59/5
f 26/31/3 28/32/3 39/3/3 40/1/3
f 40/1/3 39/3/3 32/64/3 29/63/3
f 40/66/6 34/65/6 23/44/6 26/42/6
f 29/68/6 30/67/6 34/65/6 40/66/6
f 30/67/6 42/70/6 41/69/6 34/65/6
f 42/70/6 37/72/6 38/71/6 41/69/6
f 43/73/2 33/47/2 34/48/2 41/74/2
f 45/75/2 44/73/2 47/74/2 46/76/2
f 30/51/4 31/52/4 48/78/4 42/77/4
f 42/77/4 48/78/4 36/80/4 37/79/4
f 43/82/5 48/81/5 31/62/5 33/60/5
f 35/84/5 36/83/5 48/81/5 43/82/5
f 52/88/6 51/87/6 50/86/6 49/85/6
f 41/69/6 38/71/6 51/87/6 52/88/6
f 52/90/3 53/89/3 43/3/3 41/1/3
f 49/92/3 54/91/3 53/89/3 52/90/3
f 35/12/1 55/94/1 51/93/1 38/10/1
f 59/94/1 58/96/1 57/95/1 56/93/1
f 60/100/5 55/99/5 53/98/5 54/97/5
f 55/99/5 35/84/5 43/82/5 53/98/5
f 50/86/6 51/87/6 62/102/6 61/101/6
f 61/101/6 62/102/6 56/104/6 57/103/6
f 63/105/2 60/75/2 50/76/2 61/106/2
f 65/107/2 64/105/2 67/106/2 66/108/2
f 51/79/4 55/80/4 68/110/4 62/109/4
f 62/109/4 68/110/4 59/112/4 56/111/4
f 63/114/5 68/113/5 55/99/5 60/100/5
f 58/116/5 59/115/5 68/113/5 63/114/5
f 61/101/6 57/103/6 70/118/6 69/117/6
f 69/117/6 70/118/6 66/120/6 67/119/6
f 69/122/3 71/121/3 63/91/3 61/92/3
f 74/124/3 73/123/3 72/121/3 75/122/3
f 58/96/1 76/126/1 70/125/1 57/95/1
f 76/126/1 65/128/1 66/127/1 70/125/1
f 76/129/5 58/116/5 63/114/5 71/130/5
f 65/131/5 76/129/5 71/130/5 64/132/5
f 75/77/4 72/78/4 71/110/4 69/109/4
f 72/133/5 73/134/5 64/132/5 71/130/5
f 73/73/2 74/74/2 67/106/2 64/105/2
f 74/135/6 75/136/6 69/117/6 67/119/6
f 16/23/6 78/138/6 77/137/6 5/24/6
f 16/14/4 15/16/4 79/140/4 78/139/4
f 80/141/2 7/7/2 5/5/2 77/142/2
f 80/144/5 79/143/5 15/17/5 7/18/5
f 78/138/6 82/82/6 81/145/6 77/137/6
f 82/82/6 1/84/6 2/146/6 81/145/6
f 86/77/4 85/78/4 84/80/4 83/79/4
f 78/139/4 79/140/4 87/78/4 82/77/4
f 4/75/2 88/148/2 81/147/2 2/76/2
f 88/148/2 80/141/2 77/142/2 81/147/2
f 88/149/5 87/69/5 79/143/5 80/144/5
f 4/150/5 3/71/5 87/69/5 88/149/5
f 83/151/1 84/152/1 3/3/1 1/1/1
f 84/153/5 85/154/5 87/69/5 3/71/5
f 85/155/3 86/156/3 82/10/3 87/12/3
f 86/157/6 83/158/6 1/84/6 82/82/6
f 90/162/6 89/161/6 46/160/6 47/159/6
f 49/85/6 50/86/6 89/161/6 90/162/6
f 90/164/3 91/163/3 54/91/3 49/92/3
f 94/166/3 93/165/3 92/163/3 95/164/3
f 60/96/1 96/168/1 89/167/1 50/95/1
f 100/168/1 99/170/1 98/169/1 97/167/1
f 45/174/5 96/173/5 91/172/5 44/171/5
f 96/173/5 60/100/5 54/97/5 91/172/5
f 102/176/4 101/175/4 91/78/4 90/77/4
f 105/178/4 104/177/4 103/175/4 106/176/4
f 44/171/5 91/172/5 101/180/5 107/179/5
f 107/179/5 101/180/5 92/182/5 93/181/5
f 44/73/2 107/184/2 108/183/2 47/74/2
f 112/184/2 111/186/2 110/185/2 109/183/2
f 108/188/6 102/187/6 90/162/6 47/159/6
f 94/190/6 95/189/6 102/187/6 108/188/6
f 94/190/6 108/188/6 114/192/6 113/191/6
f 113/191/6 114/192/6 109/194/6 110/193/6
f 113/196/3 115/195/3 93/165/3 94/166/3
f 110/198/3 111/197/3 115/195/3 113/196/3
f 107/170/1 116/200/1 114/199/1 108/169/1
f 120/200/1 119/202/1 118/201/1 117/199/1
f 116/203/5 107/179/5 93/181/5 115/204/5
f 112/205/5 116/203/5 115/204/5 111/206/5
f 114/192/6 122/208/6 121/207/6 109/194/6
f 122/208/6 117/210/6 118/209/6 121/207/6
f 123/211/2 112/184/2 109/183/2 121/212/2
f 119/213/2 123/211/2 121/212/2 118/214/2
f 114/176/4 116/175/4 124/216/4 122/215/4
f 125/215/4 126/216/4 100/218/4 97/217/4
f 123/220/5 124/219/5 116/203/5 112/205/5
f 119/222/5 120/221/5 124/219/5 123/220/5
f 97/167/1 100/168/1 120/200/1 117/199/1
f 100/223/5 126/224/5 124/219/5 120/221/5
f 126/163/3 125/164/3 122/196/3 124/195/3
f 125/225/6 97/226/6 117/210/6 122/208/6
f 97/226/6 98/227/6 46/160/6 89/161/6
f 98/214/2 99/213/2 45/75/2 46/76/2
f 100/218/4 97/217/4 89/79/4 96/80/4
f 99/228/5 100/223/5 96/173/5 45/174/5
f 127/229/1 101/168/1 102/167/1 128/230/1
f 130/231/1 129/229/1 132/230/1 131/232/1
f 101/180/5 127/234/5 133/233/5 92/182/5
f 127/234/5 103/236/5 104/235/5 133/233/5
f 95/164/3 92/163/3 133/238/3 134/237/3
f 135/237/3 138/238/3 137/240/3 136/239/3
f 134/242/6 128/241/6 102/187/6 95/189/6
f 105/244/6 106/243/6 128/241/6 134/242/6
f 106/243/6 140/246/6 139/245/6 128/241/6
f 140/246/6 131/248/6 132/247/6 139/245/6
f 141/249/2 127/184/2 128/183/2 139/250/2
f 129/251/2 141/249/2 139/250/2 132/252/2
f 106/176/4 103/175/4 142/254/4 140/253/4
f 143/253/4 146/254/4 145/256/4 144/255/4
f 141/258/5 142/257/5 103/236/5 127/234/5
f 129/260/5 130/259/5 142/257/5 141/258/5
f 144/36/1 145/35/1 130/231/1 131/232/1
f 145/261/5 146/262/5 142/257/5 130/259/5
f 146/32/3 143/31/3 140/239/3 142/240/3
f 143/263/6 144/264/6 131/248/6 140/246/6
f 148/266/4 147/265/4 104/177/4 105/178/4
f 133/233/5 104/235/5 147/268/5 149/267/5
f 133/186/2 149/270/2 150/269/2 134/185/2
f 150/272/6 148/271/6 105/244/6 134/242/6
f 154/274/4 153/273/4 152/265/4 151/266/4
f 149/267/5 147/268/5 155/275/5 156/276/5
f 149/270/2 156/278/2 157/277/2 150/269/2
f 158/279/6 148/271/6 150/272/6 157/280/6
f 151/36/1 152/35/1 147/231/1 148/232/1
f 152/281/5 153/282/5 155/275/5 147/268/5
f 153/32/3 154/31/3 158/239/3 155/240/3
f 154/283/6 151/284/6 148/271/6 158/279/6
f 158/274/4 160/286/4 159/285/4 155/273/4
f 160/286/4 136/288/4 137/287/4 159/285/4
f 161/292/5 159/291/5 137/290/5 138/289/5
f 156/276/5 155/275/5 159/291/5 161/292/5
f 156/278/2 161/294/2 162/293/2 157/277/2
f 166/294/2 165/296/2 164/295/2 163/293/2
f 136/300/6 160/299/6 162/298/6 135/297/6
f 160/299/6 158/279/6 157/280/6 162/298/6
f 167/301/6 135/297/6 162/298/6 168/302/6
f 164/303/6 167/301/6 168/302/6 163/304/6
f 161/229/1 169/168/1 168/167/1 162/230/1
f 169/168/1 166/170/1 163/169/1 168/167/1
f 167/164/3 170/163/3 138/238/3 135/237/3
f 173/166/3 172/165/3 171/163/3 174/164/3
f 169/305/5 161/292/5 138/289/5 170/306/5
f 166/307/5 169/305/5 170/306/5 165/308/5
f 174/309/4 171/310/4 170/287/4 167/288/4
f 171/311/5 172/312/5 165/308/5 170/306/5
f 172/313/2 173/314/2 164/295/2 165/296/2
f 173/315/6 174/316/6 167/301/6 164/303/6

